<?xml version="1.0" standalone="no"?>
<!DOCTYPE svg PUBLIC "-//W3C//DTD SVG 20010904//EN"
 "http://www.w3.org/TR/2001/REC-SVG-20010904/DTD/svg10.dtd">
<svg version="1.0" xmlns="http://www.w3.org/2000/svg"
 width="1038.000000pt" height="1038.000000pt" viewBox="0 0 1038.000000 1038.000000"
 preserveAspectRatio="xMidYMid meet"
 >
<defs><style>.cls-1{fill:#fff;}</style></defs>
<g transform="translate(0.000000,1038.000000) scale(0.100000,-0.100000)"
fill="#000000" stroke="none">
<path class="cls-1" d="M5213 9453 c-7 -2 -31 -64 -54 -136 -185 -598 -276 -848 -415 -1141
l-99 -208 -205 -196 c-113 -107 -221 -202 -240 -210 -69 -29 -437 -215 -554
-280 -180 -101 -220 -144 -372 -397 -145 -243 -309 -568 -355 -705 -17 -52
-54 -139 -81 -194 -133 -266 -216 -532 -258 -826 -18 -127 -24 -472 -11 -660
52 -780 233 -1463 556 -2105 151 -301 271 -482 459 -694 174 -197 761 -717
866 -767 51 -25 118 -7 285 75 228 113 707 411 766 477 35 39 429 550 616 800
504 672 822 1163 1073 1659 135 266 150 334 150 670 0 538 -120 1014 -340
1344 -102 151 -130 172 -175 127 -38 -38 -41 -30 63 -181 149 -214 258 -532
309 -895 22 -161 25 -582 4 -714 -12 -81 -23 -108 -116 -290 -303 -598 -676
-1150 -1452 -2153 l-234 -301 -154 -101 c-311 -203 -642 -389 -720 -403 -31
-6 -121 60 -340 252 -550 481 -728 698 -964 1175 -281 566 -448 1161 -517
1845 -24 235 -25 683 -1 845 59 407 206 759 500 1200 102 152 252 359 295 407
103 114 557 249 1162 344 189 30 534 26 893 -10 l288 -29 277 14 c339 17 898
17 1087 0 325 -29 703 -97 1089 -196 340 -86 805 -237 813 -262 2 -6 -35 -64
-83 -129 -48 -66 -116 -159 -152 -209 -36 -49 -66 -91 -67 -93 -2 -2 -65 21
-141 51 -177 70 -328 118 -529 167 -320 78 -644 131 -891 146 l-110 7 -190
-163 c-104 -90 -211 -182 -238 -206 l-49 -43 -46 -410 c-26 -225 -49 -412 -51
-415 -3 -2 -169 -23 -369 -45 l-364 -42 -191 -160 c-105 -88 -295 -248 -422
-354 l-231 -194 -114 35 c-63 19 -151 46 -196 60 -68 20 -83 29 -83 45 0 32
-36 93 -74 127 -114 100 -294 45 -326 -100 -17 -73 -1 -128 54 -185 78 -83
199 -90 285 -17 l40 35 216 -66 c119 -37 222 -64 230 -62 7 3 197 160 422 349
224 189 416 349 426 357 13 10 126 27 350 52 182 21 332 37 334 35 1 -1 -5
-62 -13 -135 l-15 -133 -296 -411 c-163 -227 -298 -414 -299 -416 -2 -2 -351
-110 -776 -240 l-773 -237 -39 25 c-56 37 -155 41 -211 9 -75 -44 -116 -136
-95 -217 23 -93 100 -154 195 -154 102 0 181 71 194 174 l6 52 465 142 c256
79 466 142 468 140 1 -1 -57 -128 -130 -281 l-133 -279 -3 -251 -3 -252 -28
-12 c-36 -15 -87 -67 -100 -103 -41 -109 22 -238 131 -268 196 -52 334 186
192 332 -21 21 -46 41 -56 45 -17 5 -18 23 -18 236 l0 230 152 321 c83 177
155 326 158 330 4 4 110 39 236 78 161 49 235 76 250 92 31 32 614 845 624
871 7 16 140 1157 140 1198 0 4 92 87 205 184 l206 176 167 -16 c488 -50 1040
-185 1371 -337 82 -38 116 -46 137 -31 9 6 89 116 316 435 120 167 119 186
-12 246 -286 129 -989 319 -1503 406 -346 58 -481 68 -964 70 l-431 1 -122 84
c-107 74 -119 86 -104 97 9 7 154 83 323 169 168 86 312 163 319 172 26 33 11
62 -129 244 -175 226 -186 238 -218 238 -18 0 -149 -89 -412 -279 l-386 -278
-159 -37 c-88 -21 -167 -40 -176 -42 -15 -5 -13 9 17 96 55 157 142 387 280
740 175 447 275 718 275 745 0 12 -8 29 -17 37 -31 28 -482 248 -505 247 -13
0 -29 -3 -35 -6z m249 -225 c92 -46 168 -88 168 -94 0 -14 -147 -404 -299
-791 -131 -334 -219 -575 -294 -805 -70 -213 -72 -223 -54 -252 l15 -23 -131
-6 c-276 -13 -838 -126 -1137 -229 -133 -46 -231 -95 -289 -145 -23 -19 -41
-32 -41 -29 0 14 105 174 134 204 47 51 200 139 506 290 l275 137 215 206 216
207 103 217 c56 119 123 269 148 334 55 144 174 494 238 704 26 86 51 157 54
157 3 0 81 -37 173 -82z m968 -1282 c51 -66 93 -125 94 -133 1 -8 -122 -77
-319 -179 -176 -91 -330 -172 -342 -180 -17 -10 -23 -24 -23 -49 0 -32 6 -38
111 -112 107 -75 111 -78 83 -84 -62 -14 -229 -8 -468 16 -137 14 -307 28
-378 32 -111 5 -126 8 -115 21 6 8 23 51 37 95 l25 81 50 12 c28 7 129 31 226
54 l177 41 363 263 c268 194 367 260 375 252 6 -6 53 -65 104 -130z m-1982
-3242 c47 -54 16 -124 -56 -124 -61 0 -105 61 -81 113 24 52 95 58 137 11z
m-171 -1156 c46 -43 14 -128 -48 -128 -42 0 -60 10 -74 44 -33 78 60 143 122
84z m917 -939 c55 -43 22 -133 -49 -133 -46 0 -75 31 -75 79 0 38 37 75 75 75
12 0 34 -9 49 -21z"/>
</g>
</svg>

